<?xml version="1.0" standalone="no"?> <!DOCTYPE svg PUBLIC "-//W3C//DTD SVG 1.0//EN" "http://www.w3.org/TR/2001/REC-SVG-20010904/DTD/svg10.dtd" > <svg xmlns="http://www.w3.org/2000/svg" width="100%" height="100%">
<defs >
<font id="thbaijambold_0" horiz-adv-x="412" ><font-face
    font-family="TH Baijam"
    units-per-em="1000"
    panose-1="2 0 5 6 0 0 0 2 0 4"
    ascent="800"
    descent="-200"
    alphabetic="0" />
<missing-glyph horiz-adv-x="540" d="M394 68V644H138V68H394ZM473 0H60V709H473V0Z" />
<glyph unicode=" " glyph-name="space" horiz-adv-x="300" />
<glyph unicode="!" glyph-name="exclam" horiz-adv-x="202" d="M66 486H139V108H66V486ZM61 38Q61 21 73 10T103 -1Q121 -1 133 10T145 38Q145 55 133 66T103 77Q85 77 73 66T61 38Z" />
<glyph unicode="&quot;" glyph-name="quotedbl" horiz-adv-x="256" d="M30 515H106V355H30V515ZM145 515H221V355H145V515Z" />
<glyph unicode="#" glyph-name="numbersign" horiz-adv-x="473" d="M290 131H186V0H115V131H34V187H115V308H34V365H115V484H186V365H290V484H360V365H434V308H360V187H434V131H360V0H290V131ZM186 187H290V308H186V187Z" />
<glyph unicode="$" glyph-name="dollar" horiz-adv-x="395" d="M166 0H141Q114 0 91 8T50 31T23 67T13 115H86Q86 88 102 74T141 60H166V229L118 248Q66 271 48 302T29 365Q29 392 40 413T71 451T115 475T166 484V534H237V484Q264 484 287 476T327 454T355 418T365
369H291Q291 396 276 410T237 425V261Q249 256 261 251T285 241Q313 229 330 217T357 191T370 160T374 125Q374 102 364 80T334 40T290 11T237 0V-52H166V0ZM237 200V60Q244 60 255 65T276 80T294 100T301 124Q301 150 293 164T263 188H264L237 200ZM103 366Q103
347 109 330T139 301Q145 298 151 296T166 290V425Q143 425 123 408T103 366Z" />
<glyph unicode="%" glyph-name="percent" horiz-adv-x="626" d="M131 -16L403 500H475L205 -16H131ZM133 459Q115 459 99 452T70 432T50 404T43 372V289Q43 254 65 235T127 215H150Q169 215 185 222T214 241T234 268T242 301V387Q242 421 221 440T157 459H133ZM112
364Q112 379 121 391T146 403L154 399Q178 399 178 373L174 308Q174 294 164 283T140 272H136Q112 272 112 299V364ZM434 247Q416 247 400 240T371 220T352 192T345 160V76Q345 43 366 24T428 4H450Q469 4 486 11T515 29T535 56T543 89V175Q543 209 522 228T458
247H434ZM413 152Q413 167 422 179T446 191H450Q475 191 475 166V97Q475 82 465 71T441 60H437Q413 60 413 87V152Z" />
<glyph unicode="&amp;" glyph-name="ampersand" horiz-adv-x="472" d="M409 224Q409 191 399 158T371 95Q386 77 400 61T427 30Q441 14 454 0L370 1Q365 5 359 11Q354 16 347 24T329 44Q304 21 272 8T203 -6H173Q147 -6 122 5T76 35T44 77T32 125V147Q32 166 40
183T63 216T96 243T136 267L123 282Q108 297 97 316T86 358V365Q86 390 96 411T124 449T165 474T216 484H243Q266 484 286 477T320 456T343 425T352 386V376Q352 352 343 334T317 300T280 273T235 251L248 236Q267 213 282 195T320 152Q327 169 331 188T335 224H409ZM174
223Q148 208 127 189T106 147V125Q106 113 112 101T128 78T149 61T173 54H203Q226 54 247 66T285 97L174 223ZM208 303Q237 316 258 333T280 376V385Q280 402 269 414T241 427H216Q192 427 176 409T159 365V359Q159 350 163 342T172 328L181 314Q181 313 195 297H196L208
303Z" />
<glyph unicode="&apos;" glyph-name="quotesingle" horiz-adv-x="142" d="M29 515H105V355H29V515Z" />
<glyph unicode="(" glyph-name="parenleft" horiz-adv-x="240" d="M140 -136Q94 -64 68 14T42 174Q42 259 66 335T140 484H219Q167 409 141 333T115 174Q115 94 143 15T218 -136H140Z" />
<glyph unicode=")" glyph-name="parenright" horiz-adv-x="240" d="M36 -136Q83 -63 111 15T140 174Q140 258 114 333T35 484H114Q164 411 188 335T212 174Q212 93 186 15T114 -136H36Z" />
<glyph unicode="*" glyph-name="asterisk" horiz-adv-x="342" d="M134 476V563H197V477L275 521Q280 513 285 506Q290 499 294 492T304 477L221 430L304 384L276 338L197 381V297H134V382L56 339L28 385L109 430L28 475Q33 482 37 490Q45 504 56 520L134 476Z" />
<glyph unicode="+" glyph-name="plus" horiz-adv-x="414" d="M240 197V65H169V197H32V254H169V385H240V254H376V197H240Z" />
<glyph unicode="," glyph-name="comma" horiz-adv-x="173" d="M61 77H130V43Q130 17 124 -1T107 -32T85 -55T63 -71L41 -86L7 -39L26 -23Q39 -14 50 0T61 43V77Z" />
<glyph unicode="-" glyph-name="hyphen" horiz-adv-x="261" d="M22 185V246H234V185H22Z" />
<glyph unicode="." glyph-name="period" horiz-adv-x="202" d="M54 38Q54 56 67 67T103 79Q125 79 139 68T153 38Q153 19 139 7T103 -5Q81 -5 68 7T54 38Z" />
<glyph unicode="/" glyph-name="slash" horiz-adv-x="329" d="M-11 -16L260 500H333L64 -16H-11Z" />
<glyph unicode="0" glyph-name="zero" horiz-adv-x="414" d="M224 490Q300 490 340 450T381 345V169Q381 136 367 105T329 49T274 10T207 -5H184Q109 -5 69 35T28 142V312Q28 345 41 376T78 433T131 474T196 490H224ZM101 142Q101 103 122 77T183 50H200Q221 50
240 60T275 88T299 127T308 169V345Q308 384 287 409T225 435H208Q186 435 167 424T133 396T110 356T101 312V142Z" />
<glyph unicode="1" glyph-name="one" horiz-adv-x="284" d="M138 0V347Q117 335 89 330T27 323V378Q48 378 68 387T103 410T128 444T138 484H211V0H138Z" />
<glyph unicode="2" glyph-name="two" horiz-adv-x="421" d="M221 498Q298 498 338 461T379 358Q379 324 366 300T312 246L141 124Q121 110 114 91T105 55H387V0H28V52Q28 87 44 116T88 166L282 305Q291 311 298 327T306 358Q306 443 223 443H206Q175 443 146 425T93
380L39 420Q69 456 112 477T206 498H221Z" />
<glyph unicode="3" glyph-name="three" horiz-adv-x="426" d="M135 307H245Q266 309 279 322T293 358Q293 443 211 443H193Q162 443 133 425T80 380L27 420Q56 456 99 477T193 498H210Q285 498 326 461T367 358Q367 311 335 282Q362 261 377 231T392 170Q392 131
377 99T336 44T274 9T196 -4Q135 -4 93 18T15 85L67 128Q96 95 127 73T197 51Q221 51 243 60T281 86T308 124T318 170Q318 186 312 200T296 226T271 245T241 252H135V307Z" />
<glyph unicode="4" glyph-name="four" horiz-adv-x="424" d="M262 0V97H88Q59 97 44 109T28 147L267 484H335V152H398V97H335V0H262ZM262 359Q243 332 226 307T191 256T155 206T118 152H262V359Z" />
<glyph unicode="5" glyph-name="five" horiz-adv-x="436" d="M376 430H145V307H264Q294 307 319 295T363 264T392 220T402 170Q402 131 387 99T346 44T284 9T207 -4Q147 -4 105 18T27 85L78 128Q107 95 138 73T208 51Q232 51 253 60T291 86T318 124T328 170Q328
186 322 200T306 226T281 245T251 252H71V484H376V430Z" />
<glyph unicode="6" glyph-name="six" horiz-adv-x="431" d="M239 310Q316 310 356 274T397 172V165Q397 132 383 101T345 47T289 10T221 -4H199Q142 -4 107 18T54 77Q42 102 37 135T32 197V302Q32 343 48 378T93 440T158 482T239 498Q307 498 360 459L321 407Q302
421 281 432T239 443Q212 443 188 432T145 402T116 358T105 303V270Q127 291 152 300T212 310H239ZM117 140Q117 98 137 75T198 51H216Q237 51 256 61T291 87T314 123T323 165V172Q323 211 302 233T241 255H223Q201 255 182 246T149 220T126 183T117 140Z" />
<glyph unicode="7" glyph-name="seven" horiz-adv-x="400" d="M20 486H375V447L225 144Q211 112 203 75T195 0H120Q122 36 128 75T149 149Q156 164 164 182T186 232T224 310T284 431H20V486Z" />
<glyph unicode="8" glyph-name="eight" horiz-adv-x="427" d="M375 361Q375 336 359 310T322 266Q354 249 373 218T393 151Q393 112 378 83T337 34T275 5T197 -5H184Q151 -5 123 4T73 31T40 74T28 131Q28 162 47 196T96 255Q73 271 61 293T48 345Q48 375 60 401T94
448T144 479T203 491H229Q299 491 337 457T375 361ZM208 234Q186 234 167 224T133 198T110 164T101 131Q101 93 124 72T183 50H196Q221 50 243 56T282 76T309 108T319 151Q319 167 312 182T294 208T269 227T242 234H208ZM219 289Q235 290 250 297T276 314T293 337T300
361Q300 395 282 415T229 436H214Q176 436 149 410T122 346Q122 328 129 317T146 300T166 292T183 289H219Z" />
<glyph unicode="9" glyph-name="nine" horiz-adv-x="427" d="M185 185Q109 185 69 220T28 322V328Q28 362 42 392T80 446T135 484T202 498H225Q282 498 317 476T370 416V417Q382 393 387 359T393 297V191Q393 150 377 115T332 53T266 11T185 -4Q150 -4 120 6T64
35L104 86Q123 73 144 62T185 51Q212 51 236 62T279 92T308 136T319 191V223Q276 185 213 185H185ZM308 355Q308 395 287 419T226 443H209Q188 443 169 433T134 407T110 370T101 328V322Q101 240 184 240H201Q223 240 242 249T276 275T299 312T308 355Z" />
<glyph unicode=":" glyph-name="colon" horiz-adv-x="222" d="M66 60Q66 77 80 90T115 103Q137 103 151 90T165 60Q165 43 151 30T115 17Q94 17 80 30T66 60ZM66 302Q66 320 80 332T115 345Q137 345 151 333T165 302Q165 285 151 273T115 260Q94 260 80 272T66 302Z" />
<glyph unicode=";" glyph-name="semicolon" horiz-adv-x="222" d="M66 302Q66 320 80 332T115 345Q137 345 150 333T164 302Q164 285 151 273T115 260Q94 260 80 272T66 302ZM88 109H157V74Q157 44 149 25T129 -8T101 -32T71 -52L68 -54L33 -7Q42 2 51 8T69 22T82
42T88 74V109Z" />
<glyph unicode="&lt;" glyph-name="less" horiz-adv-x="447" d="M412 429V363L140 205L412 48V-17L23 205L412 429Z" />
<glyph unicode="=" glyph-name="equal" horiz-adv-x="381" d="M23 121V182H337V121H23ZM23 248V309H337V248H23Z" />
<glyph unicode="&gt;" glyph-name="greater" horiz-adv-x="448" d="M417 205L28 -17V48L299 205L28 363V429L417 205Z" />
<glyph unicode="?" glyph-name="question" horiz-adv-x="389" d="M116 38Q116 56 130 67T166 79Q187 79 201 68T215 38Q215 19 201 7T166 -5Q145 -5 131 7T116 38ZM9 443Q26 461 59 473T136 486H193Q225 486 254 478T305 452T340 411T353 353Q353 315 326 282T233
221Q222 216 215 208T205 189T200 170T199 154V108H126V154Q126 166 129 182T143 216T171 249T218 278H217Q254 295 267 313T280 353Q280 389 254 408T193 427H136Q109 427 83 414T40 383L9 443Z" />
<glyph unicode="@" glyph-name="at" horiz-adv-x="647" d="M367 294Q365 312 352 324T322 337H288Q261 337 243 318T224 269V192Q224 172 236 159T267 145H302Q329 145 347 163T367 209V294ZM511 29Q480 7 445 -5T372 -17H226Q187 -17 153 -4T94 33T55 88T40 156V294Q40
338 57 376T105 442T176 487T263 503H408Q447 503 481 490T540 452T579 396T594 328V260Q594 214 586 183T562 132T524 103T473 94Q448 94 429 103T398 125Q378 106 351 99T302 91H267Q244 91 224 99T188 120T165 152T156 192V269Q156 295 166 317T195 356T237
382T288 391H322Q349 391 367 384V391H433V210Q433 185 443 168T473 150Q503 150 514 182T525 261V332Q525 356 516 377T492 413T456 438T411 447H261Q230 447 203 436T154 404T121 356T109 296V153Q109 129 118 108T142 72T177 47T222 38H374Q398 38 424 48T476
78L511 29Z" />
<glyph unicode="A" glyph-name="A" horiz-adv-x="564" d="M242 491Q274 491 298 481T334 450L542 0H462L401 133H157Q142 101 126 67T96 0H16L242 491ZM181 188H375Q362 216 350 241T327 291T304 342T279 397L181 188Z" />
<glyph unicode="B" glyph-name="B" horiz-adv-x="512" d="M341 56Q354 56 366 64T387 85T401 113T406 143Q406 157 401 172T387 199T366 220T341 228H113V56H341ZM113 434V283H292Q319 283 338 306T357 357Q357 371 352 384T338 409T317 427T292 434H113ZM40 489H292Q322
489 347 478T392 449T422 407T433 357Q433 334 424 313T397 273Q434 255 458 219T482 143Q482 116 471 91T441 45T396 13T341 0H97Q74 0 57 15T40 51V489Z" />
<glyph unicode="C" glyph-name="C" horiz-adv-x="506" d="M395 332Q395 354 387 374T366 410T334 435T295 444H238Q211 444 187 431T144 397T115 349T104 293V162Q104 141 112 120T133 83T165 56T203 46H262Q289 46 313 56T356 86T386 130T397 184H471Q471 141
455 105T410 44T343 4T262 -10H203Q167 -10 136 4T80 42T43 97T29 162V293Q29 334 45 371T90 437T157 483T238 500H295Q332 500 363 487T418 452T455 399T469 332H395Z" />
<glyph unicode="D" glyph-name="D" horiz-adv-x="527" d="M97 0Q74 0 57 15T40 51V489H306Q343 489 375 476T431 441T468 390T482 326V197Q482 156 465 120T420 58T353 16T272 0H97ZM113 56H272Q299 56 324 67T367 97T397 142T408 197V326Q408 348 400 367T379
402T346 425T306 434H113V56Z" />
<glyph unicode="E" glyph-name="E" horiz-adv-x="506" d="M97 0Q74 0 57 15T40 51V489H460V434H113V283H410V228H113V56H460V0H97Z" />
<glyph unicode="F" glyph-name="F" horiz-adv-x="506" d="M113 228V0H40V489H460V434H113V283H410V228H113Z" />
<glyph unicode="G" glyph-name="G" horiz-adv-x="506" d="M471 176Q471 135 455 101T410 42T343 4T262 -10H203Q167 -10 136 4T80 42T43 97T29 162V293Q29 334 45 371T90 437T157 483T238 500H295Q332 500 363 487T418 452T455 399T469 332H395Q395 354 387 374T366
410T334 435T295 444H238Q211 444 187 431T144 397T115 349T104 293V162Q104 141 112 120T133 83T165 56T203 46H262Q288 46 312 55T354 80T384 119T397 168H250V224H471V176Z" />
<glyph unicode="H" glyph-name="H" horiz-adv-x="506" d="M387 228H113V0H40V489H113V283H387V489H460V0H387V228Z" />
<glyph unicode="I" glyph-name="I" horiz-adv-x="151" d="M38 489H111V0H38V489Z" />
<glyph unicode="J" glyph-name="J" horiz-adv-x="442" d="M88 170Q88 147 96 126T117 88T149 61T188 51Q215 51 240 60T283 86T313 126T324 176V489H398V176Q398 135 382 101T337 42T270 4T188 -10Q152 -10 120 5T65 45T28 102T14 170H88Z" />
<glyph unicode="K" glyph-name="K" horiz-adv-x="485" d="M373 0L192 176Q172 193 150 202T113 214V0H40V489H113V298Q176 346 241 394T371 489H471L169 260Q201 253 226 233T274 193Q275 192 282 185T310 156T369 98T469 0H373Z" />
<glyph unicode="L" glyph-name="L" horiz-adv-x="444" d="M97 0Q74 0 57 15T40 51V489H113V56H419V0H97Z" />
<glyph unicode="M" glyph-name="M" horiz-adv-x="629" d="M312 -23L114 332V0H41V491H110L312 133L512 491H581V0H508V330L312 -23Z" />
<glyph unicode="N" glyph-name="N" horiz-adv-x="527" d="M406 119V491H482V0H413L113 372V0H40V491H109L406 119Z" />
<glyph unicode="O" glyph-name="O" horiz-adv-x="507" d="M472 197Q472 156 456 119T411 53T344 7T263 -10H205Q169 -10 137 4T81 42T44 97T30 163V292Q30 334 46 371T91 437T158 483T240 500H297Q334 500 366 486T421 447T458 392T472 326V197ZM398 326Q398 348
390 369T369 406T337 433T297 444H240Q213 444 189 431T146 397T116 349T105 292V163Q105 142 113 121T134 84T166 57T205 46H263Q290 46 314 58T357 92T387 140T398 197V326Z" />
<glyph unicode="P" glyph-name="P" horiz-adv-x="486" d="M40 489H318Q348 489 373 479T418 450T449 408T460 357Q460 330 449 306T419 265T374 238T318 228H113V0H40V489ZM113 434V283H318Q347 283 367 305T387 357Q387 387 367 410T318 434H113Z" />
<glyph unicode="Q" glyph-name="Q" horiz-adv-x="506" d="M384 30Q359 11 328 1T262 -10H204Q168 -10 136 4T80 42T43 97T29 163V292Q29 334 45 371T91 437T158 483T240 500H296Q333 500 365 486T420 447T457 392T471 326V197Q471 165 461 135T431 77Q442 66 454
54T477 30L428 -16L384 30ZM397 326Q397 348 389 369T368 406T336 433T296 444H240Q212 444 188 431T145 397T115 349T104 292V163Q104 142 112 121T133 84T165 57T204 46H262Q301 46 337 74L264 147L314 193L381 127Q397 161 397 197V326Z" />
<glyph unicode="R" glyph-name="R" horiz-adv-x="495" d="M40 489H318Q348 489 374 479T419 450T450 408T461 357Q461 330 451 308T423 268T381 241T330 228Q340 217 350 202L487 0H403L271 195L272 194Q263 206 251 217T231 228H114V0H40V489ZM114 434V283H318Q347
283 367 305T387 357Q387 387 367 410T318 434H114Z" />
<glyph unicode="S" glyph-name="S" horiz-adv-x="548" d="M104 164Q104 140 112 119T135 82T169 56T212 46H316Q341 46 363 54T402 76T428 108T438 146Q438 156 436 168T426 193T406 214T373 228L167 252Q124 259 101 273T66 304T52 338T50 368Q50 404 69 429T115
470T173 493T225 501H330Q363 501 392 490T443 459T478 411T491 348H417Q417 368 410 386T391 417T364 438T330 446H225Q213 446 196 441T162 426T135 402T124 368Q124 362 125 354T132 337T149 323T179 313L382 287Q425 281 451 265T490 228T507 186T511 146Q511
113 496 85T455 35T393 2T316 -10H212Q174 -10 141 3T83 40T44 95T30 164H104Z" />
<glyph unicode="T" glyph-name="T" horiz-adv-x="423" d="M173 434H19V489H399V434H247V0H173V434Z" />
<glyph unicode="U" glyph-name="U" horiz-adv-x="517" d="M109 489V163Q109 142 117 121T138 84T170 57T210 46H267Q294 46 319 58T362 92T392 140T403 197V489H476V197Q476 156 460 119T415 53T348 7T267 -10H210Q173 -10 141 4T85 42T48 97T34 163V489H109Z" />
<glyph unicode="V" glyph-name="V" horiz-adv-x="510" d="M411 489H488L289 -5Q246 -5 224 9T190 50L17 489H94L250 93L411 489Z" />
<glyph unicode="W" glyph-name="W" horiz-adv-x="758" d="M273 -5Q229 -5 206 9T170 50L18 489H95L229 103Q257 205 283 299T339 495Q348 495 360 494T383 490T405 479T420 459L520 103Q554 202 587 296T654 489H732L579 50Q567 23 544 9T477 -5L376 367L273 -5Z" />
<glyph unicode="X" glyph-name="X" horiz-adv-x="500" d="M102 0H13L202 244Q157 303 108 367T13 489H102L246 300L393 489H481L291 244Q337 186 386 122T481 0H393L247 188L102 0Z" />
<glyph unicode="Y" glyph-name="Y" horiz-adv-x="487" d="M277 0H203V243L13 489H96L239 300L386 489H468L277 243V0Z" />
<glyph unicode="Z" glyph-name="Z" horiz-adv-x="504" d="M36 434V489H485L149 56H461V0H13L351 434H36Z" />
<glyph unicode="[" glyph-name="bracketleft" horiz-adv-x="216" d="M102 -58Q102 -75 116 -81T147 -88H186V-141H147Q124 -141 103 -137T66 -123T41 -98T31 -61V459Q31 481 40 496T66 522T103 536T147 541H186V488H147Q131 488 117 481T102 456V-58Z" />
<glyph unicode="\" glyph-name="backslash" horiz-adv-x="330" d="M329 -16L58 500H-15L254 -16H329Z" />
<glyph unicode="]" glyph-name="bracketright" horiz-adv-x="216" d="M115 456Q115 474 101 481T70 488H31V541H70Q93 541 114 537T151 522T176 497T186 459V-61Q186 -83 177 -98T151 -122T114 -136T70 -141H31V-88H70Q86 -88 100 -82T115 -58V456Z" />
<glyph unicode="^" glyph-name="asciicircum" horiz-adv-x="489" d="M238 422L122 245H47L238 543L432 245H357L238 422Z" />
<glyph unicode="_" glyph-name="underscore" horiz-adv-x="389" d="M-7 -90V-35H391V-90H-7Z" />
<glyph unicode="`" glyph-name="grave" horiz-adv-x="239" d="M50 472L86 504L191 410Q184 404 178 398Q173 393 167 388T156 378L50 472Z" />
<glyph unicode="a" glyph-name="a" horiz-adv-x="383" d="M274 25Q254 11 230 3T185 -5H144Q117 -5 96 5T59 31T35 70T27 117V209Q27 239 39 265T72 312T120 344T179 356H220Q240 356 252 348T274 333V351H348V-2H274V25ZM274 227Q273 238 268 251T256 275T240
293T220 300H179Q163 300 149 293T124 272T107 243T101 209V117Q101 93 112 72T144 50H185Q201 50 216 57T244 77T265 105T274 138V227Z" />
<glyph unicode="b" glyph-name="b" horiz-adv-x="384" d="M31 484H105V328Q120 339 139 347T185 356H227Q254 356 276 346T315 319T341 280T351 234V141Q351 111 340 85T308 38T261 7T202 -5H161Q142 -5 129 0T105 12V0H31V484ZM278 235Q278 247 274 258T264 279T248
294T227 300H185Q156 300 133 277T105 225V109Q109 88 125 69T161 50H202Q218 50 232 58T256 79T272 109T278 143V235Z" />
<glyph unicode="c" glyph-name="c" horiz-adv-x="380" d="M273 235Q273 261 258 280T219 300H179Q163 300 149 293T124 272T107 243T101 209V117Q101 93 116 72T155 50H196Q228 50 251 73T274 135H348Q348 103 336 77T303 33T255 5T196 -5H155Q128 -5 105 5T64
31T37 70T27 117V209Q27 239 39 265T72 312T120 344T179 356H219Q246 356 269 347T310 322T337 284T347 235H273Z" />
<glyph unicode="d" glyph-name="d" horiz-adv-x="385" d="M274 25Q258 14 235 5T185 -5H144Q117 -5 96 5T59 31T35 70T27 117V209Q27 239 39 265T72 312T120 344T179 356H220Q240 356 253 353T274 345V484H348V-2H274V25ZM274 237Q273 248 268 259T256 280T240
294T220 300H179Q163 300 149 293T124 272T107 243T101 209V117Q101 93 112 72T144 50H185Q201 50 216 57T244 77T265 105T274 138V237Z" />
<glyph unicode="e" glyph-name="e" horiz-adv-x="381" d="M101 117Q101 93 116 72T155 50H196Q228 50 251 75T274 139H348Q348 107 336 81T303 36T255 6T196 -5H155Q128 -5 105 5T64 31T37 70T27 117V209Q27 239 39 265T72 312T120 344T179 356H220Q247 356 270
346T311 319T338 280T348 234V175H101V117ZM179 300Q149 300 127 278T101 225H274V234Q274 246 270 257T259 278T241 294T220 300H179Z" />
<glyph unicode="f" glyph-name="f" horiz-adv-x="235" d="M81 300H14V351H81Q83 379 96 403T132 445T184 473T246 484V424Q210 424 185 403T154 351H218V300H154V0H81V300Z" />
<glyph unicode="g" glyph-name="g" horiz-adv-x="385" d="M274 44Q257 32 238 26T196 19H155Q128 19 105 29T64 56T37 95T27 142V209Q27 239 39 265T72 312T120 344T179 356H220Q237 356 250 352T274 341V351H348V2Q348 -24 334 -46T298 -85T248 -112T194 -122H152Q110
-122 76 -97T28 -34H109Q118 -48 130 -59T156 -70H197Q227 -70 250 -49T274 2V44ZM274 237Q272 260 256 279T220 299H179Q163 299 149 292T124 272T107 243T101 209V142Q101 118 116 97T155 75H196Q228 75 250 101T274 162V237Z" />
<glyph unicode="h" glyph-name="h" horiz-adv-x="388" d="M278 235Q278 247 274 258T264 279T248 294T227 300H185Q156 300 133 277T105 225V0H31V484H105V330Q122 341 142 348T185 356H227Q254 356 276 346T315 319T341 280T351 234V0H278V235Z" />
<glyph unicode="i" glyph-name="i" horiz-adv-x="185" d="M55 351H127V0H55V351ZM43 436Q43 454 56 465T92 477Q114 477 128 466T142 436Q142 417 128 405T92 393Q70 393 57 405T43 436Z" />
<glyph unicode="j" glyph-name="j" horiz-adv-x="185" d="M54 351H127V8Q127 -21 115 -47T83 -92T34 -123T-25 -134H-80V-74H-25Q-9 -74 5 -68T30 -50T47 -24T54 8V351ZM43 436Q43 454 56 465T92 477Q114 477 128 466T142 436Q142 417 128 405T92 393Q70 393 57
405T43 436Z" />
<glyph unicode="k" glyph-name="k" horiz-adv-x="366" d="M160 208Q169 203 177 196T192 183V184L375 0H281L137 144Q121 159 105 165V0H31V484H105V243Q142 271 179 297T252 351H354L160 208Z" />
<glyph unicode="l" glyph-name="l" horiz-adv-x="185" d="M55 484H127V0H55V484Z" />
<glyph unicode="m" glyph-name="m" horiz-adv-x="564" d="M241 0V234Q241 246 237 257T226 278T208 294T187 300Q172 300 158 294T132 278T113 255T106 226V0H33V351H106V330Q123 341 143 348T187 356Q216 356 240 344T281 314Q302 331 333 343T396 356Q423 356
446 346T486 319T513 280T523 234V0H450V235Q450 247 446 258T434 279T417 294T396 300Q381 300 367 295T341 281T322 260T315 233V0H241Z" />
<glyph unicode="n" glyph-name="n" horiz-adv-x="392" d="M281 235Q281 247 277 258T265 279T248 294T227 300H185Q156 300 133 277T105 225V0H31V351H105V330Q122 341 142 348T185 356H227Q254 356 277 346T317 319T344 280T354 234V0H281V235Z" />
<glyph unicode="o" glyph-name="o" horiz-adv-x="381" d="M348 141Q348 111 336 85T303 38T255 7T196 -5H155Q128 -5 105 5T64 31T37 70T27 117V209Q27 239 39 265T72 312T120 344T179 356H220Q247 356 270 346T311 319T338 280T348 234V141ZM274 234Q274 246
270 257T259 278T241 294T220 300H179Q163 300 149 293T124 272T107 243T101 209V117Q101 93 116 72T155 50H196Q212 50 226 57T251 78T268 107T274 141V234Z" />
<glyph unicode="p" glyph-name="p" horiz-adv-x="385" d="M31 351H105V331Q120 342 140 349T183 356H225Q252 356 275 346T315 319T342 280T352 234V141Q352 111 340 85T308 38T259 7T200 -5H159Q141 -5 129 -2T105 10V-123H31V351ZM279 234Q279 246 275 257T263
278T246 294T225 300H183Q167 300 153 293T129 273T112 246T105 213V117Q105 93 121 72T159 50H200Q216 50 230 57T255 78T272 107T279 141V234Z" />
<glyph unicode="q" glyph-name="q" horiz-adv-x="385" d="M274 21Q257 10 237 3T196 -5H155Q128 -5 105 5T64 31T37 70T27 117V209Q27 239 39 265T72 312T120 344T179 356H220Q237 356 251 352T274 342V351H348V-123H274V21ZM274 237Q272 260 256 279T220 299H179Q163
299 149 292T124 272T107 243T101 209V117Q101 93 116 72T155 50H196Q212 50 225 57T249 77T266 105T274 138V237Z" />
<glyph unicode="r" glyph-name="r" horiz-adv-x="256" d="M31 351H105V331Q120 341 141 348T183 356H239V300H183Q167 300 153 292T129 271T112 242T105 209V0H31V351Z" />
<glyph unicode="s" glyph-name="s" horiz-adv-x="413" d="M136 161Q106 165 88 174T60 196T47 223T44 250Q44 276 57 296T90 329T134 349T181 356H251Q278 356 301 347T342 322T369 284T379 235H306Q306 261 290 280T251 300H181Q173 300 162 297T142 288T125
273T118 251Q118 243 123 232T151 216Q186 212 223 208T296 200Q327 195 345 183T372 157T385 128T388 101Q388 78 378 59T349 25T305 3T251 -5H155Q128 -5 105 4T65 29T38 67T28 115H101Q101 88 116 69T155 50H251Q259 50 270 53T291 63T308 78T315 100Q315 116
309 129T281 144L136 161Z" />
<glyph unicode="t" glyph-name="t" horiz-adv-x="235" d="M80 300H14V351H80V484H154V351H218V300H154V0H80V300Z" />
<glyph unicode="u" glyph-name="u" horiz-adv-x="388" d="M105 115Q105 91 119 71T156 50H197Q226 50 249 73T278 125V351H351V0H278V21Q261 10 240 3T197 -5H156Q129 -5 106 5T67 31T41 70T31 117V351H105V115Z" />
<glyph unicode="v" glyph-name="v" horiz-adv-x="380" d="M223 -5Q191 -5 166 5T132 36L12 351H87L186 92Q211 156 237 221T287 351H363L223 -5Z" />
<glyph unicode="w" glyph-name="w" horiz-adv-x="605" d="M297 245Q275 183 252 120T208 -5Q183 -5 164 3T137 27L13 351H90L179 100L268 357Q293 357 313 349T341 323L417 101L506 351H581L460 27Q453 11 433 3T388 -5L297 245Z" />
<glyph unicode="x" glyph-name="x" horiz-adv-x="405" d="M292 351H378L245 185Q280 141 321 93T399 0H310L199 133Q172 100 144 67T89 0H1L153 185Q123 223 87 268T21 351H107L199 236L292 351Z" />
<glyph unicode="y" glyph-name="y" horiz-adv-x="389" d="M112 -34Q120 -48 132 -59T159 -70H200Q230 -70 254 -49T278 2V45Q261 34 241 27T197 19H156Q129 19 106 29T67 56T41 95T31 142V351H105V141Q105 117 119 97T156 76H197Q226 76 249 98T278 150V351H351V2Q351
-24 337 -46T301 -85T251 -112T197 -122H156Q113 -122 79 -97T31 -34H112Z" />
<glyph unicode="z" glyph-name="z" horiz-adv-x="407" d="M367 0H21L251 300H38V351H381L149 50H367V0Z" />
<glyph unicode="{" glyph-name="braceleft" horiz-adv-x="311" d="M185 -58Q185 -75 199 -81T230 -88H268V-141H230Q207 -141 186 -137T149 -123T124 -98T114 -61V86Q114 101 105 117T81 146T52 167T26 176V192Q37 192 52 199T81 218T104 247T114 283V459Q114
481 123 496T149 522T186 536T230 541H268V488H230Q213 488 199 481T185 456V283Q185 245 166 219T126 182Q145 168 165 143T185 86V-58Z" />
<glyph unicode="|" glyph-name="bar" horiz-adv-x="184" d="M55 583H127V-99H55V583Z" />
<glyph unicode="}" glyph-name="braceright" horiz-adv-x="311" d="M121 86Q121 102 126 117T141 144T160 166T179 183Q160 194 141 220T121 283V456Q121 474 107 481T75 488H37V541H75Q98 541 119 537T156 522T182 497T192 459V283Q192 264 201 248T225 219T254
199T280 192V176Q269 176 254 168T225 146T202 117T192 86V-61Q192 -83 183 -98T157 -122T119 -136T75 -141H37V-88H75Q92 -88 106 -82T121 -58V86Z" />
<glyph unicode="~" glyph-name="asciitilde" horiz-adv-x="424" d="M287 230Q304 230 317 251T336 306H399Q399 271 388 246T359 203T323 178T287 170Q243 170 220 187T180 223Q169 234 159 243T136 253Q119 253 105 232T87 177H24Q24 211 35 237T64 279T100 304T136
313Q172 313 191 299T226 267Q240 253 253 242T287 230Z" />
</font>
</defs>
</svg>
