<?xml version="1.0" standalone="no"?> <!DOCTYPE svg PUBLIC "-//W3C//DTD SVG 1.0//EN" "http://www.w3.org/TR/2001/REC-SVG-20010904/DTD/svg10.dtd" > <svg xmlns="http://www.w3.org/2000/svg" width="100%" height="100%">
<defs >
<font id="thbaijam_0" horiz-adv-x="385" ><font-face
    font-family="TH Baijam"
    units-per-em="1000"
    panose-1="2 0 5 6 0 0 0 2 0 4"
    ascent="800"
    descent="-200"
    alphabetic="0" />
<missing-glyph horiz-adv-x="500" d="M386 53V646H112V53H386ZM436 0H63V695H436V0Z" />
<glyph unicode=" " glyph-name="space" horiz-adv-x="300" />
<glyph unicode="!" glyph-name="exclam" horiz-adv-x="181" d="M71 476H116V109H71V476ZM59 30Q59 15 69 5T94 -5Q109 -5 119 5T129 30Q129 45 119 55T94 65Q79 65 69 55T59 30Z" />
<glyph unicode="&quot;" glyph-name="quotedbl" horiz-adv-x="232" d="M36 505H83V359H36V505ZM148 505H195V359H148V505Z" />
<glyph unicode="#" glyph-name="numbersign" horiz-adv-x="437" d="M287 132H159V0H117V132H38V174H117V312H38V354H117V475H159V354H287V475H329V354H401V312H329V174H401V132H329V0H287V132ZM159 174H287V312H159V174Z" />
<glyph unicode="$" glyph-name="dollar" horiz-adv-x="363" d="M167 0H129Q82 0 50 27T18 101H63Q63 74 82 60T129 45H167V226L112 250Q65 270 50 300T34 362Q34 387 44 407T71 443T109 466T154 475H167V525H209V475H223Q270 475 302 448T334 374H289Q289 401
270 415T223 430H209V253L265 229Q313 208 328 183T343 119Q343 98 334 77T308 38T270 11T223 0H209V-53H167V0ZM209 208V45H223Q232 45 245 51T269 67T289 91T298 118Q298 146 289 162T254 189L209 208ZM79 363Q79 343 86 323T123 290L167 271V430H154Q126 430
103 411T79 363Z" />
<glyph unicode="%" glyph-name="percent" horiz-adv-x="581" d="M136 450Q121 450 108 443T84 425T68 399T62 369V285Q62 254 80 236T130 218H152Q184 218 206 242T229 297V384Q229 415 212 432T160 450H136ZM102 361Q102 379 115 393T148 408H152Q189 408 189
374V305Q189 287 175 274T143 260H139Q102 260 102 295V361ZM421 243Q406 243 393 236T369 218T353 192T347 162V78Q347 48 365 30T415 12H437Q469 12 491 35T514 91V178Q514 208 497 225T445 243H421ZM135 -17L392 490H436L181 -17H135ZM387 155Q387 173 400 187T433
202H437Q474 202 474 168V99Q474 81 460 68T428 54H424Q387 54 387 89V155Z" />
<glyph unicode="&amp;" glyph-name="ampersand" horiz-adv-x="436" d="M376 211Q376 181 366 149T339 88Q354 69 367 53T391 25Q402 11 413 0H357Q351 7 344 15Q338 22 330 31T313 53Q289 27 258 11T189 -6H160Q137 -6 115 5T75 33T47 73T36 119V141Q36 161 44
178T67 211T100 238T139 262L122 282Q108 297 99 314T89 354V362Q89 386 98 406T122 442T158 466T202 475H228Q267 475 294 448T321 382V373Q321 350 313 332T289 299T255 274T213 252L205 248Q227 222 253 190T307 126Q318 148 324 170T331 211H376ZM166 230Q150
222 135 212T108 191T89 167T81 141V119Q81 105 88 91T107 66T132 47T160 39H189Q217 39 241 53T283 90L166 230ZM200 292Q231 306 254 325T277 373V381Q277 402 262 417T226 432H202Q173 432 153 412T133 362V355Q133 342 140 332T153 312Q155 307 177 281Q183
284 189 286T200 292Z" />
<glyph unicode="&apos;" glyph-name="quotesingle" horiz-adv-x="125" d="M36 505H83V359H36V505Z" />
<glyph unicode="(" glyph-name="parenleft" horiz-adv-x="217" d="M138 -137Q95 -68 71 9T47 169Q47 254 69 328T138 475H187Q140 403 116 329T92 169Q92 87 118 10T187 -137H138Z" />
<glyph unicode=")" glyph-name="parenright" horiz-adv-x="217" d="M47 -137Q90 -68 116 9T142 169Q142 254 118 328T47 475H96Q143 403 165 329T187 169Q187 87 163 10T96 -137H47Z" />
<glyph unicode="*" glyph-name="asterisk" horiz-adv-x="313" d="M137 456V554H172V457L256 506Q257 503 260 499Q262 495 265 490T274 476L188 427L274 378L256 348L172 396V300H137V397L53 349L35 379L118 427L35 475Q36 478 39 482Q41 486 44 491T53 505L137 456Z" />
<glyph unicode="+" glyph-name="plus" horiz-adv-x="381" d="M212 199V66H170V199H37V241H170V374H212V241H345V199H212Z" />
<glyph unicode="," glyph-name="comma" horiz-adv-x="154" d="M67 62H108V35Q108 6 100 -13T81 -45T58 -66T38 -80L15 -48Q22 -41 31 -35T48 -19T61 3T67 35V62Z" />
<glyph unicode="-" glyph-name="hyphen" horiz-adv-x="237" d="M28 187V233H208V187H28Z" />
<glyph unicode="." glyph-name="period" horiz-adv-x="181" d="M59 30Q59 45 69 55T94 65Q109 65 119 55T129 30Q129 15 119 5T94 -5Q79 -5 69 5T59 30Z" />
<glyph unicode="/" glyph-name="slash" horiz-adv-x="301" d="M-1 -17L256 490H300L45 -17H-1Z" />
<glyph unicode="0" glyph-name="zero" horiz-adv-x="381" d="M210 480Q278 480 314 442T350 341V163Q350 131 338 101T303 47T253 9T193 -5H171Q105 -5 69 34T32 136V308Q32 339 44 370T77 425T125 465T183 480H210ZM77 136Q77 92 101 64T170 35H187Q210 35 231
46T269 76T295 117T305 163V341Q305 385 281 412T211 440H194Q170 440 149 429T112 398T87 356T77 308V136Z" />
<glyph unicode="1" glyph-name="one" horiz-adv-x="272" d="M141 0V368Q119 346 92 337T33 326V367Q54 367 73 376T108 400T132 434T141 475H186V0H141Z" />
<glyph unicode="2" glyph-name="two" horiz-adv-x="388" d="M208 488Q276 488 312 453T348 354Q348 321 336 298T289 248L122 125Q96 106 89 83T81 40H356V0H32V45Q32 80 46 107T85 153L275 294Q286 302 294 319T303 354Q303 448 209 448H192Q158 448 129 431T80
390L44 417Q70 450 108 469T192 488H208Z" />
<glyph unicode="3" glyph-name="three" horiz-adv-x="392" d="M137 295H231Q257 297 274 312T291 354Q291 448 197 448H180Q146 448 117 431T68 390L32 417Q58 450 96 469T180 488H196Q264 488 300 453T336 354Q336 304 302 276Q329 257 344 227T360 164Q360 126
347 96T309 43T253 8T183 -4Q128 -4 91 16T22 77L56 107Q82 77 112 57T184 36Q210 36 234 46T276 73T304 114T315 164Q315 182 308 198T289 227T261 247T226 255H137V295Z" />
<glyph unicode="4" glyph-name="four" horiz-adv-x="391" d="M260 0V98H77Q56 98 44 108T32 140L260 475H305V138H366V98H305V0H260ZM260 397L87 138H260V397Z" />
<glyph unicode="5" glyph-name="five" horiz-adv-x="402" d="M344 435H120V295H249Q276 295 298 284T336 254T361 212T370 164Q370 126 357 96T319 43T263 8T193 -4Q138 -4 101 16T32 77L66 107Q92 77 122 57T194 36Q220 36 244 46T286 73T314 114T325 164Q325
182 318 198T299 227T271 247T236 255H75V475H344V435Z" />
<glyph unicode="6" glyph-name="six" horiz-adv-x="397" d="M225 298Q293 298 329 264T365 166V159Q365 127 353 98T318 46T268 10T208 -4H186Q137 -4 106 17T57 74Q46 98 41 131T36 191V298Q36 338 51 372T91 432T151 473T225 488Q256 488 282 480T328 456L301
419Q286 430 267 439T225 448Q195 448 169 436T124 404T93 357T81 299V234Q102 263 132 280T198 298H225ZM92 133Q92 88 116 62T185 36H202Q225 36 246 47T284 75T310 114T320 159V166Q320 210 296 234T226 258H209Q185 258 164 248T127 220T102 180T92 133Z" />
<glyph unicode="7" glyph-name="seven" horiz-adv-x="368" d="M25 476H344V446L199 142Q183 109 176 73T169 0H124Q126 35 130 71T149 140Q156 156 165 176T189 228T227 311T287 436H25V476Z" />
<glyph unicode="8" glyph-name="eight" horiz-adv-x="393" d="M290 260Q321 246 341 214T361 145Q361 107 348 79T310 33T254 5T184 -5H171Q141 -5 116 4T72 29T43 70T32 125Q32 158 51 192T103 250Q79 265 66 287T52 341Q52 370 63 395T93 440T137 470T190 481H215Q277
481 310 448T343 358Q343 330 327 303T290 260ZM194 236Q170 236 149 225T112 197T87 161T77 125Q77 83 103 59T170 35H183Q210 35 234 42T276 64T305 98T316 145Q316 163 308 179T287 208T258 228T227 236H194ZM207 276Q225 277 241 285T270 305T290 331T297 358Q297
396 277 418T215 441H200Q179 441 161 434T128 413T105 381T97 342Q97 322 105 309T126 289T150 279T170 276H207Z" />
<glyph unicode="9" glyph-name="nine" horiz-adv-x="393" d="M172 187Q104 187 68 221T32 318V325Q32 357 44 386T79 438T129 474T189 488H211Q260 488 291 467T340 410Q351 386 356 353T361 292V185Q361 145 346 111T306 51T246 11T172 -4Q141 -4 115 4T69 28L96
65Q111 54 130 45T172 36Q202 36 228 48T273 80T304 127T316 185V250Q295 221 265 204T199 187H172ZM305 351Q305 396 281 422T212 448H195Q172 448 151 437T113 409T87 370T77 325V318Q77 274 101 251T171 227H188Q212 227 233 237T270 265T295 304T305 351Z"
/>
<glyph unicode=":" glyph-name="colon" horiz-adv-x="200" d="M71 53Q71 68 81 78T106 88Q121 88 131 78T141 53Q141 38 131 28T106 18Q91 18 81 28T71 53ZM71 298Q71 313 81 323T106 333Q121 333 131 323T141 298Q141 283 131 273T106 263Q91 263 81 273T71 298Z" />
<glyph unicode=";" glyph-name="semicolon" horiz-adv-x="200" d="M71 298Q71 313 81 323T106 333Q121 333 131 323T141 298Q141 283 131 273T106 263Q91 263 81 273T71 298ZM92 94H133V67Q133 38 125 19T106 -13T83 -34T63 -48L40 -16Q47 -9 56 -3T73 13T86 35T92
67V94Z" />
<glyph unicode="&lt;" glyph-name="less" horiz-adv-x="412" d="M380 408V363L110 200L380 38V-7L32 200L380 408Z" />
<glyph unicode="=" glyph-name="equal" horiz-adv-x="350" d="M28 123V169H308V123H28ZM28 251V297H308V251H28Z" />
<glyph unicode="&gt;" glyph-name="greater" horiz-adv-x="413" d="M380 200L32 -7V38L302 200L32 363V408L380 200Z" />
<glyph unicode="?" glyph-name="question" horiz-adv-x="358" d="M119 30Q119 45 129 55T154 65Q169 65 179 55T189 30Q189 15 179 5T154 -5Q139 -5 129 5T119 30ZM15 439Q29 455 58 465T125 476H180Q209 476 235 468T280 444T311 404T323 349Q323 313 299 281T214
223Q200 217 192 207T180 186T174 165T173 148V109H128V148Q128 160 131 175T143 207T167 239T209 267Q250 286 264 306T278 349Q278 390 249 411T180 432H125Q94 432 71 423T35 399L15 439Z" />
<glyph unicode="@" glyph-name="at" horiz-adv-x="601" d="M360 290Q358 312 342 326T304 341H271Q239 341 217 320T195 265V186Q195 163 211 147T250 131H284Q316 131 337 151T360 204V290ZM474 23Q448 3 418 -7T353 -18H210Q175 -18 144 -5T91 30T55 84T42 150V289Q42
332 58 369T102 434T167 477T246 493H388Q423 493 454 480T507 445T543 391T556 325V255Q556 211 549 181T528 131T495 104T451 95Q422 95 405 109T379 139Q371 126 360 117T335 103T309 95T284 92H250Q210 92 183 119T156 186V265Q156 289 165 310T190 346T226
371T271 380H304Q321 380 335 376T360 363V380H399V205Q399 177 412 157T451 136Q469 136 481 145T501 171T512 209T515 256V328Q515 354 506 376T479 416T440 442T391 452H244Q211 452 182 440T131 406T96 355T83 291V147Q83 121 92 99T119 59T158 33T207 23H355Q408
23 450 56L474 23Z" />
<glyph unicode="A" glyph-name="A" horiz-adv-x="523" d="M236 476Q257 476 275 467T302 440L498 0H448L389 133H133L75 0H25L236 476ZM150 173H371L261 422L150 173Z" />
<glyph unicode="B" glyph-name="B" horiz-adv-x="474" d="M86 0Q69 0 57 13T44 44V475H275Q300 475 322 465T361 437T387 398T397 350Q397 324 387 303T359 263Q377 256 393 243T420 212T437 175T444 135Q444 110 435 86T409 43T370 12T322 0H86ZM322 40Q337 40
351 49T375 72T391 103T397 135Q397 150 391 166T375 196T351 219T322 228H89V40H322ZM89 435V268H275Q290 268 304 275T328 293T344 320T350 350Q350 365 344 380T328 408T304 427T275 435H89Z" />
<glyph unicode="C" glyph-name="C" horiz-adv-x="468" d="M387 333Q387 355 379 375T355 411T320 436T277 445H223Q193 445 167 432T122 396T91 345T79 286V155Q79 132 87 110T111 70T146 41T189 30H245Q274 30 300 40T346 70T377 114T389 169H434Q434 129 419
96T378 40T318 3T245 -10H189Q157 -10 129 3T79 40T46 93T34 155V286Q34 326 49 362T89 425T149 469T223 485H277Q310 485 338 474T387 442T420 394T432 333H387Z" />
<glyph unicode="D" glyph-name="D" horiz-adv-x="488" d="M86 0Q69 0 57 13T44 44V475H288Q321 475 349 463T399 430T432 381T444 319V190Q444 150 429 115T388 55T328 15T255 0H86ZM89 40H255Q284 40 310 52T356 84T387 132T399 190V319Q399 342 391 363T367
400T332 425T288 435H89V40Z" />
<glyph unicode="E" glyph-name="E" horiz-adv-x="468" d="M44 475H424V435H89V268H375V228H89V40H424V0H86Q69 0 57 13T44 44V475Z" />
<glyph unicode="F" glyph-name="F" horiz-adv-x="468" d="M89 228V0H44V475H424V435H89V268H375V228H89Z" />
<glyph unicode="G" glyph-name="G" horiz-adv-x="468" d="M434 169Q434 129 419 96T378 40T318 3T245 -10H189Q157 -10 129 3T79 40T46 93T34 155V286Q34 326 49 362T89 425T149 469T223 485H277Q310 485 338 474T387 442T420 394T432 333H387Q387 355 379 375T355
411T320 436T277 445H223Q193 445 167 432T122 396T91 345T79 286V155Q79 132 87 110T111 70T146 41T189 30H245Q274 30 300 40T346 70T377 114T389 169H247V209H434V169Z" />
<glyph unicode="H" glyph-name="H" horiz-adv-x="468" d="M379 228H89V0H44V475H89V268H379V475H424V0H379V228Z" />
<glyph unicode="I" glyph-name="I" horiz-adv-x="133" d="M44 475H89V0H44V475Z" />
<glyph unicode="J" glyph-name="J" horiz-adv-x="408" d="M65 155Q65 132 73 111T97 72T132 45T175 35Q204 35 230 45T276 73T307 115T319 169V475H364V169Q364 129 349 96T308 40T248 3T175 -10Q143 -10 115 3T65 40T32 93T20 155H65Z" />
<glyph unicode="K" glyph-name="K" horiz-adv-x="448" d="M360 0L187 175Q160 202 133 209T89 216V0H44V475H89V270L355 475H423L135 248Q151 248 166 242T195 225T221 204T246 180Q247 179 250 176T270 155T322 102T423 0H360Z" />
<glyph unicode="L" glyph-name="L" horiz-adv-x="409" d="M44 475H89V40H384V0H86Q69 0 57 13T44 44V475Z" />
<glyph unicode="M" glyph-name="M" horiz-adv-x="584" d="M540 0H495V375L292 -6L89 375V0H44V476H89L292 101L495 475H540V0Z" />
<glyph unicode="N" glyph-name="N" horiz-adv-x="488" d="M397 76V476H444V0H399L89 400V0H44V476H89L397 76Z" />
<glyph unicode="O" glyph-name="O" horiz-adv-x="469" d="M435 190Q435 150 420 114T379 50T319 6T246 -10H191Q158 -10 130 3T80 40T47 93T35 156V285Q35 325 50 361T91 425T151 469T225 485H279Q312 485 340 472T390 435T423 382T435 319V190ZM390 319Q390 342
382 364T358 405T323 434T279 445H225Q195 445 169 432T123 396T92 345T80 285V156Q80 133 88 111T112 70T147 41T191 30H246Q275 30 301 43T347 79T378 130T390 190V319Z" />
<glyph unicode="P" glyph-name="P" horiz-adv-x="449" d="M44 475H299Q325 475 347 465T387 438T414 399T424 350Q424 324 414 302T387 264T348 238T299 228H89V0H44V475ZM89 435V268H299Q332 268 355 292T379 350Q379 366 373 381T356 409T330 428T299 435H89Z" />
<glyph unicode="Q" glyph-name="Q" horiz-adv-x="468" d="M364 37Q339 15 309 3T245 -10H190Q157 -10 129 3T79 40T46 93T34 156V285Q34 325 49 361T90 425T150 469T224 485H278Q311 485 339 472T389 435T422 382T434 319V190Q434 157 424 127T395 70L439 23L407
-9L364 37ZM389 319Q389 342 381 364T357 405T322 434T278 445H224Q194 445 168 432T122 396T91 345T79 285V156Q79 133 87 111T111 70T146 41T190 30H245Q270 30 292 40T334 67L262 139L294 171L363 102Q375 122 382 144T389 190V319Z" />
<glyph unicode="R" glyph-name="R" horiz-adv-x="458" d="M44 475H299Q325 475 347 465T387 438T414 399T424 350Q424 324 414 302T387 264T348 238T299 228H285Q290 228 299 218T319 191L443 0H390L265 191Q256 205 242 216T215 228H89V0H44V475ZM89 435V268H299Q332
268 355 292T379 350Q379 366 373 381T356 409T330 428T299 435H89Z" />
<glyph unicode="S" glyph-name="S" horiz-adv-x="508" d="M79 149Q79 125 88 104T113 66T150 40T197 30H297Q325 30 349 39T390 63T418 97T428 138Q428 150 426 164T416 191T393 215T354 228L156 253Q118 260 98 273T68 301T56 333T54 361Q54 395 71 419T112 458T163
479T209 486H310Q339 486 365 477T410 449T441 406T453 349H408Q408 369 400 387T379 418T348 439T310 447H209Q195 447 177 442T141 425T111 398T99 361Q99 354 100 345T107 326T126 309T163 298L359 273Q397 267 419 252T454 217T469 176T473 138Q473 106 460
79T422 33T366 2T297 -10H197Q163 -10 133 2T81 35T47 86T34 149H79Z" />
<glyph unicode="T" glyph-name="T" horiz-adv-x="390" d="M173 435H25V475H365V435H218V0H173V435Z" />
<glyph unicode="U" glyph-name="U" horiz-adv-x="478" d="M84 475V156Q84 133 92 111T116 70T151 41T195 30H250Q279 30 305 43T351 79T382 130T394 190V475H439V190Q439 150 424 114T383 50T323 6T250 -10H195Q162 -10 134 3T84 40T51 93T39 156V475H84Z" />
<glyph unicode="V" glyph-name="V" horiz-adv-x="472" d="M399 475H447L261 -5Q232 -5 216 7T188 45L25 475H73L234 50L399 475Z" />
<glyph unicode="W" glyph-name="W" horiz-adv-x="706" d="M243 -5Q214 -5 197 7T168 45L25 475H73L214 50L329 480Q341 480 359 475T385 447L492 50L633 475H681L538 45Q527 20 510 8T463 -5L353 413L243 -5Z" />
<glyph unicode="X" glyph-name="X" horiz-adv-x="462" d="M82 0H25L202 237L25 475H82L230 275L380 475H437L259 237L437 0H380L231 199L82 0Z" />
<glyph unicode="Y" glyph-name="Y" horiz-adv-x="450" d="M247 0H202V237L25 475H76L224 275L374 475H425L247 237V0Z" />
<glyph unicode="Z" glyph-name="Z" horiz-adv-x="466" d="M41 435V475H441L115 40H425V0H25L351 435H41Z" />
<glyph unicode="[" glyph-name="bracketleft" horiz-adv-x="194" d="M79 -67Q79 -89 97 -97T137 -105H161V-142H137Q117 -142 99 -138T67 -126T45 -104T37 -70V457Q37 477 45 491T67 514T99 527T137 531H161V494H137Q116 494 98 485T79 454V-67Z" />
<glyph unicode="\" glyph-name="backslash" horiz-adv-x="302" d="M301 -17L44 490H0L255 -17H301Z" />
<glyph unicode="]" glyph-name="bracketright" horiz-adv-x="194" d="M119 454Q119 476 101 485T61 494H37V531H61Q81 531 99 527T131 514T153 491T161 457V-70Q161 -90 153 -103T131 -125T99 -138T61 -142H37V-105H61Q82 -105 100 -97T119 -67V454Z" />
<glyph unicode="^" glyph-name="asciicircum" horiz-adv-x="452" d="M224 440L102 248H57L224 519L393 248H347L224 440Z" />
<glyph unicode="_" glyph-name="underscore" horiz-adv-x="358" d="M-1 -91V-51H359V-91H-1Z" />
<glyph unicode="`" glyph-name="grave" horiz-adv-x="119" d="M117 375H70L-3 485H44L117 375Z" />
<glyph unicode="a" glyph-name="a" horiz-adv-x="352" d="M273 46Q259 25 229 10T173 -5H133Q110 -5 91 4T59 30T39 67T32 111V204Q32 232 42 257T71 302T114 333T167 344H207Q234 344 247 332T273 308V339H318V-2H273V46ZM273 228Q272 241 267 254T252 279T232
297T207 304H167Q148 304 132 296T103 273T84 241T77 204V111Q77 84 91 60T133 35H173Q191 35 208 43T240 64T263 95T273 131V228Z" />
<glyph unicode="b" glyph-name="b" horiz-adv-x="353" d="M36 475H81V298Q99 315 120 329T173 344H213Q236 344 256 335T290 309T313 272T321 228V135Q321 106 311 81T283 37T241 6T189 -5H149Q123 -5 109 5T81 27V0H36V475ZM276 230Q276 257 258 280T213 304H173Q156
304 141 297T113 279T92 252T81 221V102Q83 90 89 79T104 57T125 41T149 35H189Q208 35 224 44T251 67T269 99T276 137V230Z" />
<glyph unicode="c" glyph-name="c" horiz-adv-x="349" d="M272 238Q272 265 253 284T206 304H167Q148 304 132 296T103 273T84 241T77 204V111Q77 97 82 84T96 60T117 42T143 35H183Q221 35 247 59T273 121H318Q318 92 308 69T279 30T236 4T183 -5H143Q120 -5
100 4T64 30T41 67T32 111V204Q32 232 42 257T71 302T114 333T167 344H206Q253 344 285 315T317 238H272Z" />
<glyph unicode="d" glyph-name="d" horiz-adv-x="354" d="M273 46Q270 41 261 33T239 16T208 1T173 -5H133Q110 -5 91 4T59 30T39 67T32 111V204Q32 232 42 257T71 302T114 333T167 344H207Q237 344 249 335T273 313V475H318V-2H273V46ZM273 233Q271 259 252 281T207
304H167Q148 304 132 296T103 273T84 241T77 204V111Q77 84 91 60T133 35H173Q191 35 208 43T240 64T263 95T273 131V233Z" />
<glyph unicode="e" glyph-name="e" horiz-adv-x="350" d="M77 111Q77 97 82 84T96 60T117 42T143 35H183Q202 35 218 42T247 61T266 89T273 125H318Q318 96 308 73T279 32T236 5T183 -5H143Q120 -5 100 4T64 30T41 67T32 111V204Q32 232 42 257T71 302T114 333T167
344H207Q230 344 250 335T286 309T309 272T318 228V177H77V111ZM167 304Q148 304 132 297T103 278T84 248T77 212H273V228Q273 241 268 255T253 279T232 297T207 304H167Z" />
<glyph unicode="f" glyph-name="f" horiz-adv-x="212" d="M85 304H20V339H85Q85 367 96 391T125 434T167 463T220 474V429Q182 429 157 403T130 339H192V304H130V0H85V304Z" />
<glyph unicode="g" glyph-name="g" horiz-adv-x="354" d="M273 59Q255 42 232 31T183 20H143Q120 20 100 29T64 55T41 92T32 136V204Q32 232 42 257T71 302T114 333T167 344H207Q230 344 246 335T273 313V339H318V-6Q318 -30 306 -51T273 -89T229 -114T181 -124H141Q104
-124 76 -103T36 -50H89Q98 -64 112 -75T144 -86H184Q201 -86 217 -80T245 -63T265 -38T273 -6V59ZM273 233Q271 259 252 281T207 303H167Q148 303 132 295T103 273T84 241T77 204V136Q77 122 82 109T96 85T117 67T143 60H183Q201 60 217 68T245 89T264 120T273
156V233Z" />
<glyph unicode="h" glyph-name="h" horiz-adv-x="357" d="M276 230Q276 257 258 280T213 304H173Q156 304 141 297T113 279T92 252T81 221V0H36V475H81V303Q99 320 122 332T173 344H213Q236 344 256 335T290 309T313 272T321 228V0H276V230Z" />
<glyph unicode="i" glyph-name="i" horiz-adv-x="165" d="M60 339H105V0H60V339ZM48 433Q48 448 58 458T83 468Q98 468 108 458T118 433Q118 418 108 408T83 398Q68 398 58 408T48 433Z" />
<glyph unicode="j" glyph-name="j" horiz-adv-x="165" d="M60 339H105V0Q105 -28 95 -52T66 -95T23 -124T-30 -135H-70V-90H-30Q8 -90 33 -64T60 0V339ZM48 433Q48 448 58 458T83 468Q98 468 108 458T118 433Q118 418 108 408T83 398Q68 398 58 408T48 433Z" />
<glyph unicode="k" glyph-name="k" horiz-adv-x="336" d="M130 202Q139 199 150 190T170 173L335 0H274L135 144Q112 167 81 170V0H36V475H81V216L242 339H311L130 202Z" />
<glyph unicode="l" glyph-name="l" horiz-adv-x="165" d="M60 475H105V0H60V475Z" />
<glyph unicode="m" glyph-name="m" horiz-adv-x="523" d="M239 0V228Q239 241 234 255T219 279T198 297T173 304Q156 304 140 297T110 279T89 253T81 221V0H36V339H81V303Q99 320 122 332T173 344Q201 344 224 329T263 293Q283 316 313 330T376 344Q399 344 419
335T455 309T478 272T487 228V0H442V230Q442 243 437 256T422 280T401 297T376 304Q359 304 343 299T313 283T292 258T284 227V0H239Z" />
<glyph unicode="n" glyph-name="n" horiz-adv-x="360" d="M279 230Q279 243 274 256T259 280T238 297T213 304H173Q156 304 141 297T113 279T92 252T81 221V0H36V339H81V303Q99 320 122 332T173 344H213Q236 344 256 335T292 309T315 272T324 228V0H279V230Z" />
<glyph unicode="o" glyph-name="o" horiz-adv-x="350" d="M318 135Q318 106 308 81T279 37T236 6T183 -5H143Q120 -5 100 4T64 30T41 67T32 111V204Q32 232 42 257T71 302T114 333T167 344H207Q230 344 250 335T286 309T309 272T318 228V135ZM273 228Q273 241
268 255T253 279T232 297T207 304H167Q148 304 132 296T103 273T84 241T77 204V111Q77 97 82 84T96 60T117 42T143 35H183Q202 35 218 43T247 66T266 98T273 135V228Z" />
<glyph unicode="p" glyph-name="p" horiz-adv-x="354" d="M36 339H81V300Q92 316 116 330T171 344H211Q234 344 254 335T290 309T313 272T322 228V135Q322 106 312 81T283 37T240 6T187 -5H147Q124 -5 108 5T81 26V-125H36V339ZM277 228Q277 241 272 255T257 279T236
297T211 304H171Q153 304 137 296T108 275T88 244T81 208V111Q81 97 86 84T100 60T121 42T147 35H187Q206 35 222 43T251 66T270 98T277 135V228Z" />
<glyph unicode="q" glyph-name="q" horiz-adv-x="354" d="M273 42Q258 22 234 9T183 -5H143Q120 -5 100 4T64 30T41 67T32 111V204Q32 232 42 257T71 302T114 333T167 344H207Q232 344 246 335T273 313V339H318V-125H273V42ZM273 233Q271 259 252 281T207 303H167Q148
303 132 295T103 273T84 241T77 204V111Q77 97 82 84T96 60T117 42T143 35H183Q201 35 217 43T245 64T264 95T273 131V233Z" />
<glyph unicode="r" glyph-name="r" horiz-adv-x="232" d="M37 339H82V304Q100 320 123 332T172 344H212V304H172Q154 304 138 295T109 272T89 240T82 204V0H37V339Z" />
<glyph unicode="s" glyph-name="s" horiz-adv-x="380" d="M126 163Q100 167 85 176T62 196T51 220T48 245Q48 270 59 288T88 319T127 338T168 344H237Q284 344 316 315T348 238H303Q303 265 284 284T237 304H168Q159 304 146 301T122 290T102 271T93 246Q93 241
94 235T99 222T112 211T137 203L279 186Q305 182 320 172T344 148T354 120T357 94Q357 73 348 55T322 23T284 3T237 -5H143Q96 -5 64 24T32 101H77Q77 74 96 55T143 35H237Q246 35 259 39T283 50T303 68T312 93Q312 112 304 126T268 146L126 163Z" />
<glyph unicode="t" glyph-name="t" horiz-adv-x="212" d="M85 304H20V339H85V475H130V339H192V304H130V0H85V304Z" />
<glyph unicode="u" glyph-name="u" horiz-adv-x="357" d="M81 109Q81 82 99 59T144 35H184Q201 35 216 42T244 60T265 87T276 118V339H321V0H276V43Q262 23 237 9T184 -5H144Q121 -5 101 4T67 30T44 67T36 111V339H81V109Z" />
<glyph unicode="v" glyph-name="v" horiz-adv-x="349" d="M199 -5Q178 -5 160 4T133 31L20 339H67L174 48L282 339H329L199 -5Z" />
<glyph unicode="w" glyph-name="w" horiz-adv-x="561" d="M280 280L183 -5Q167 -5 154 2T136 23L20 339H68L165 53L262 345Q278 345 291 338T310 316L396 53L493 339H541L426 23Q421 9 408 2T378 -5L280 280Z" />
<glyph unicode="x" glyph-name="x" horiz-adv-x="373" d="M285 339H341L216 179L359 0H302L186 145L71 0H14L156 179L32 339H88L186 213L285 339Z" />
<glyph unicode="y" glyph-name="y" horiz-adv-x="358" d="M92 -50Q101 -64 115 -75T147 -86H187Q204 -86 220 -80T248 -63T268 -38T276 -6V61Q258 44 235 32T184 20H144Q121 20 101 29T67 55T44 92T36 136V339H81V134Q81 107 99 84T144 61H184Q201 61 216 68T244
86T265 112T276 143V339H321V-6Q321 -30 309 -51T276 -89T232 -114T184 -124H144Q107 -124 79 -103T39 -50H92Z" />
<glyph unicode="z" glyph-name="z" horiz-adv-x="375" d="M336 0H32L257 304H42V339H343L117 35H336V0Z" />
<glyph unicode="{" glyph-name="braceleft" horiz-adv-x="284" d="M159 -67Q159 -89 177 -97T217 -105H241V-142H217Q197 -142 179 -138T147 -126T125 -104T117 -70V79Q117 96 106 113T80 145T47 169T18 178Q30 178 47 185T79 206T106 238T117 278V457Q117 477
125 491T147 514T179 527T217 531H241V494H217Q196 494 178 485T159 454V278Q159 257 153 240T137 209T117 188T98 178Q106 173 116 164T136 142T152 113T159 79V-67Z" />
<glyph unicode="|" glyph-name="bar" horiz-adv-x="164" d="M60 575H105V-100H60V575Z" />
<glyph unicode="}" glyph-name="braceright" horiz-adv-x="284" d="M124 79Q124 97 130 113T146 142T166 164T185 178Q177 180 167 188T147 209T131 239T124 278V454Q124 476 106 485T66 494H42V531H66Q86 531 104 527T136 514T158 491T166 457V278Q166 257 177
239T203 207T236 186T265 178Q253 178 236 169T204 146T177 114T166 79V-70Q166 -90 158 -103T136 -125T104 -138T66 -142H42V-105H66Q87 -105 105 -97T124 -67V79Z" />
<glyph unicode="~" glyph-name="asciitilde" horiz-adv-x="400" d="M276 217Q297 217 314 238T336 294H372Q372 263 362 240T338 202T307 180T276 172Q243 172 223 185T189 214T161 243T129 256Q108 256 91 235T69 179H33Q33 210 43 233T67 271T98 293T129 301Q157
301 174 288T205 259T235 230T276 217Z" />
</font>
</defs>
</svg>
